<?xml version="1.0" standalone="no"?>
<!DOCTYPE svg PUBLIC "-//W3C//DTD SVG 20010904//EN"
 "http://www.w3.org/TR/2001/REC-SVG-20010904/DTD/svg10.dtd">
<svg version="1.0" xmlns="http://www.w3.org/2000/svg"
 width="1040.000000pt" height="1040.000000pt" viewBox="0 0 1040.000000 1040.000000"
 preserveAspectRatio="xMidYMid meet">

<g transform="translate(0.000000,1040.000000) scale(0.100000,-0.100000)"
fill="#000000" stroke="none">
<path d="M5010 7505 c-514 -70 -949 -433 -1115 -929 -49 -145 -65 -256 -66
-431 0 -174 10 -255 46 -380 66 -229 184 -425 359 -600 188 -188 358 -284 641
-362 96 -27 110 -28 325 -28 203 0 233 2 310 23 190 51 340 117 467 204 93 64
270 236 341 333 110 150 203 369 238 565 11 61 18 146 18 240 0 235 -39 401
-144 615 -258 526 -834 830 -1420 750z m708 -487 c18 -16 8 -52 -31 -111 -53
-79 -48 -78 -532 -75 l-420 3 -3 23 c-5 35 43 97 112 143 l61 42 400 -7 c272
-5 403 -11 413 -18z m-746 -306 c22 -22 23 -30 26 -220 3 -167 6 -199 20 -209
12 -10 82 -13 266 -14 138 0 274 -4 301 -7 47 -7 50 -9 53 -37 3 -37 -47 -128
-85 -152 -25 -16 -63 -18 -408 -21 -236 -1 -386 1 -395 7 -13 9 -15 56 -15
327 l0 316 25 20 c21 17 36 19 107 16 70 -2 86 -6 105 -26z m-15 -763 c12 -4
25 -19 27 -31 3 -13 9 -132 13 -265 5 -133 12 -245 16 -250 5 -4 165 -9 355
-11 193 -2 354 -8 364 -13 28 -15 22 -61 -14 -115 -65 -95 -30 -89 -525 -89
-423 0 -435 1 -449 20 -13 17 -14 76 -12 377 2 254 6 360 15 369 27 27 147 32
210 8z"/>
<path d="M2420 4273 c-28 -5 -50 -21 -50 -34 0 -15 174 -11 196 5 10 8 17 17
14 20 -8 8 -132 15 -160 9z"/>
<path d="M2818 4273 c-14 -2 -32 -11 -38 -18 -15 -18 -7 -21 69 -29 63 -6 98
-27 107 -61 9 -36 -2 -70 -35 -107 l-29 -33 39 -66 c48 -83 65 -98 85 -78 12
13 9 23 -27 83 l-41 68 25 26 c33 36 47 65 47 97 0 38 -26 83 -58 98 -30 16
-103 25 -144 20z"/>
<path d="M3237 4262 c-15 -16 -17 -45 -17 -200 0 -182 5 -207 35 -182 12 10
15 49 15 206 0 107 -4 194 -8 194 -5 0 -16 -8 -25 -18z"/>
<path d="M3538 4251 c-25 -16 -48 -36 -51 -45 -8 -21 1 -20 43 5 30 19 44 21
107 15 63 -6 74 -5 80 10 10 26 -24 44 -82 44 -39 0 -62 -7 -97 -29z"/>
<path d="M3930 4261 c-12 -24 -13 -360 -1 -380 17 -26 38 5 45 64 10 89 -4
335 -20 335 -7 0 -18 -9 -24 -19z"/>
<path d="M4100 4233 c-55 -62 -100 -128 -100 -145 0 -14 97 -167 127 -200 16
-18 38 -15 47 7 2 7 -22 52 -55 99 -32 47 -59 92 -59 100 0 8 27 51 60 95 33
45 60 83 60 86 0 3 -9 5 -19 5 -11 0 -38 -21 -61 -47z"/>
<path d="M4620 4270 c-21 -13 -22 -312 -2 -332 11 -11 16 -10 28 6 21 29 17
336 -5 336 -3 0 -13 -5 -21 -10z"/>
<path d="M5040 4273 c-28 -5 -50 -21 -50 -34 0 -5 45 -9 100 -9 87 0 101 2
109 19 9 16 5 19 -36 25 -49 6 -83 6 -123 -1z"/>
<path d="M5485 4270 c-29 -13 -81 -57 -74 -64 3 -3 31 3 62 14 51 18 61 19 90
6 63 -26 72 -46 75 -167 2 -63 -1 -123 -7 -141 -13 -37 -8 -46 14 -28 39 32
50 72 50 185 0 124 -10 150 -68 185 -34 21 -106 26 -142 10z"/>
<path d="M5907 4273 c-14 -14 -5 -35 55 -130 119 -190 141 -219 148 -197 10
28 -4 67 -51 148 -96 161 -130 202 -152 179z"/>
<path d="M6142 4263 c-10 -25 -9 -353 1 -378 8 -20 9 -20 23 -1 11 16 14 61
14 208 0 162 -2 188 -15 188 -9 0 -19 -8 -23 -17z"/>
<path d="M6480 4265 c-10 -11 -3 -42 36 -157 50 -152 79 -224 93 -232 5 -3 15
1 22 10 10 13 4 41 -40 172 -77 231 -82 242 -111 207z"/>
<path d="M6843 4269 c-54 -16 -41 -36 29 -42 83 -7 112 -30 116 -89 3 -39 -1
-50 -28 -76 -16 -17 -30 -34 -30 -38 0 -15 85 -144 99 -149 8 -3 19 -1 25 5
11 11 5 25 -49 116 l-19 31 34 47 c52 73 39 149 -31 182 -36 17 -110 24 -146
13z"/>
<path d="M7815 4264 c-33 -17 -75 -53 -75 -65 0 -4 25 4 55 18 61 27 89 26
136 -8 41 -29 52 -77 46 -188 -3 -53 -9 -107 -13 -121 l-7 -25 22 20 c44 39
55 74 55 180 1 114 -13 152 -67 185 -39 24 -110 26 -152 4z"/>
<path d="M7271 4261 c-24 -15 -3 -28 54 -34 107 -11 155 -63 155 -170 0 -74
-18 -115 -66 -155 -37 -30 -37 -32 -14 -32 74 0 140 96 140 203 0 127 -73 197
-204 197 -28 0 -57 -4 -65 -9z"/>
<path d="M2370 4130 l0 -80 63 1 c85 2 121 11 125 32 3 15 -5 17 -61 17 l-64
0 -7 49 c-6 45 -18 61 -47 61 -5 0 -9 -36 -9 -80z"/>
<path d="M2776 4195 c-3 -9 -6 -48 -6 -86 l0 -69 48 0 c27 0 57 6 67 14 19 13
18 15 -17 21 -35 7 -37 9 -43 54 -4 25 -7 53 -8 61 -3 21 -33 24 -41 5z"/>
<path d="M4997 4203 c-4 -3 -7 -37 -7 -75 l0 -68 89 0 c64 0 92 4 100 14 16
19 8 22 -66 31 l-63 7 0 33 c0 18 -3 40 -6 49 -6 16 -35 22 -47 9z"/>
<path d="M6810 4125 l0 -85 44 0 c24 0 51 3 60 6 26 10 18 24 -13 24 -32 0
-41 17 -41 86 0 40 -11 54 -41 54 -5 0 -9 -38 -9 -85z"/>
<path d="M7256 4179 c-3 -17 -6 -94 -6 -170 l0 -139 30 0 c40 0 103 27 95 40
-3 5 -19 10 -36 10 l-29 0 0 145 0 145 -24 0 c-18 0 -25 -7 -30 -31z"/>
<path d="M5892 4038 c2 -86 7 -160 11 -165 5 -4 15 1 23 11 10 15 14 52 14
137 0 112 -1 119 -25 146 l-26 28 3 -157z"/>
<path d="M6447 4183 c-7 -12 -57 -173 -57 -184 0 -10 99 -13 124 -3 24 9 2 42
-31 46 -19 2 -27 8 -24 18 10 41 12 118 3 124 -6 3 -13 3 -15 -1z"/>
<path d="M3490 4153 c-20 -25 -22 -37 -18 -114 5 -106 26 -148 84 -167 51 -17
117 -7 152 23 34 29 24 41 -21 24 -45 -16 -98 -5 -128 27 -22 23 -24 36 -27
130 -2 57 -8 104 -12 104 -5 0 -18 -12 -30 -27z"/>
<path d="M5411 4154 c-17 -22 -21 -40 -20 -103 1 -131 36 -183 123 -185 35 -1
51 4 68 22 l22 22 -48 0 c-39 0 -53 5 -77 29 -31 31 -34 52 -29 184 2 63 -8
71 -39 31z"/>
<path d="M7746 4158 c-20 -28 -22 -191 -3 -227 31 -61 132 -87 177 -46 30 27
24 35 -22 29 -82 -11 -126 58 -115 181 7 86 -6 108 -37 63z"/>
<path d="M5008 4032 c-15 -3 -18 -15 -18 -84 l0 -81 101 5 c55 3 105 10 111
16 21 21 -4 32 -78 32 l-74 0 0 49 c0 51 -13 70 -42 63z"/>
<path d="M2370 3950 l0 -80 84 0 c90 0 140 12 134 33 -3 8 -31 13 -80 15 l-76
3 -7 54 c-6 50 -9 55 -31 55 -23 0 -24 -2 -24 -80z"/>
<path d="M2774 3984 c-7 -26 0 -101 10 -111 3 -3 12 0 21 7 10 9 15 31 15 71
0 52 -2 59 -20 59 -13 0 -22 -9 -26 -26z"/>
<path d="M6810 3946 c0 -36 4 -67 9 -70 14 -9 39 27 42 59 5 63 0 75 -26 75
-24 0 -25 -2 -25 -64z"/>
<path d="M6377 3952 c-9 -10 -20 -33 -23 -52 -6 -29 -5 -32 10 -27 10 4 19 7
22 7 9 0 35 63 30 76 -7 19 -20 18 -39 -4z"/>
<path d="M4602 3898 c3 -21 9 -23 83 -26 92 -3 125 3 125 22 0 21 -23 26 -122
26 -87 0 -89 -1 -86 -22z"/>
</g>
</svg>
